<svg width="54" height="62" viewBox="0 0 54 62" fill="none" xmlns="http://www.w3.org/2000/svg">
<path d="M10.6863 18.9778C10.3592 22.1191 10.1296 27.6784 12.1899 30.0447C12.1899 30.0447 11.22 23.9378 19.9144 16.2757C23.4151 13.1913 24.2242 8.99599 23.0019 5.84953C22.3075 4.06706 21.0392 2.59458 19.9373 1.56643C19.2946 0.961942 19.7881 -0.035209 20.7235 0.000957144C26.382 0.228287 35.5527 1.64393 39.4494 10.4478C41.1596 14.3124 41.2859 18.3062 40.4709 22.3671C39.9544 24.9607 38.118 30.7266 42.3074 31.4345C45.2973 31.9408 46.7435 29.8018 47.392 28.2622C47.6617 27.6215 48.5972 27.4614 49.1022 27.9729C54.1524 33.1446 54.5828 39.236 53.5383 44.4801C51.5182 54.6169 40.1151 61.9948 28.7866 61.9948C14.6346 61.9948 3.36923 54.7048 0.448156 41.5093C-0.728309 36.1826 -0.131467 25.6427 8.99331 18.2028C9.6705 17.6449 10.7781 18.1408 10.6863 18.9778Z" fill="url(#paint0_radial_123_2435)"/>
<path d="M33.9573 37.9339C28.7407 31.889 31.0764 24.9916 32.3562 22.243C32.5284 21.8814 32.0693 21.5404 31.7077 21.7625C29.4638 23.1368 24.867 26.3711 22.7264 30.9229C19.8283 37.0763 20.0349 40.0884 21.7508 43.767C22.7838 45.9835 21.5844 46.4536 20.9818 46.5363C20.3964 46.619 19.857 46.2676 19.4266 45.9008C18.1927 44.8417 17.3032 43.4622 16.8785 41.9742C16.7867 41.6539 16.3218 41.5661 16.1095 41.8296C14.5026 43.829 13.6705 47.0375 13.6303 49.3056C13.5041 56.3167 19.9373 61.9999 27.7192 61.9999C37.5269 61.9999 44.6718 52.2351 39.0362 44.0719C37.4007 41.6952 35.8626 40.1401 33.9573 37.9339Z" fill="url(#paint1_radial_123_2435)"/>
<defs>
<radialGradient id="paint0_radial_123_2435" cx="0" cy="0" r="1" gradientUnits="userSpaceOnUse" gradientTransform="translate(25.9838 62.1555) rotate(-179.776) scale(40.5092 59.8396)">
<stop offset="0.3144" stop-color="#FF9800"/>
<stop offset="0.6616" stop-color="#FF6D00"/>
<stop offset="0.9715" stop-color="#F44336"/>
</radialGradient>
<radialGradient id="paint1_radial_123_2435" cx="0" cy="0" r="1" gradientUnits="userSpaceOnUse" gradientTransform="translate(28.2586 25.8642) rotate(90.6428) scale(38.1589 31.8976)">
<stop offset="0.2141" stop-color="#FFF176"/>
<stop offset="0.3275" stop-color="#FFF27D"/>
<stop offset="0.4868" stop-color="#FFF48F"/>
<stop offset="0.6722" stop-color="#FFF7AD"/>
<stop offset="0.7931" stop-color="#FFF9C4"/>
<stop offset="0.8221" stop-color="#FFF8BD" stop-opacity="0.804"/>
<stop offset="0.8627" stop-color="#FFF6AB" stop-opacity="0.529"/>
<stop offset="0.9101" stop-color="#FFF38D" stop-opacity="0.2088"/>
<stop offset="0.9409" stop-color="#FFF176" stop-opacity="0"/>
</radialGradient>
</defs>
</svg>
